# xmcd
#
# Track frame offsets:
#	150
#	15681
#	32020
#	61410
#	79906
#	104068
#	128000
#	154382
#	168341
#	185393
#	208997
#	226359
#	241670
#	272349
#	294275
#	319085
#	332379
#
# Disc length: 4772 seconds
#
# Revision: 5
# Processed by: cddbd v1.5.2PL0 Copyright (c) Steve Scherf et al.
# Submitted via: EZCDAudioConverter 6.0.0.1
#
DISCID=e512a211
DTITLE=Various Artist - Akella Presents - Rockin' Blues - vol.19  CD1  New!
DYEAR=2013
DGENRE=Blues
TTITLE0=KENT EARL HOUSMAN - Margarita Drive
TTITLE1=SWAMP THING - Swamp Thing
TTITLE2=LARRY MILLER - What In The World
TTITLE3=JIM SUHLERr and MONKEY BEAT - Don't Believe A Word
TTITLE4=MICHAEL BARCLAY - Don't Want to Touch That Woman
TTITLE5=B.B. CHUNG KING - When the Blues Catch Up with You
TTITLE6=MASON RUFFNER - Looded Down
TTITLE7=JAMES SOLBERG - One Of These Days
TTITLE8=Dr FEELGOOD - World Keeps Turning
TTITLE9=BRANT PARKER - Be Careful With a Fool
TTITLE10=DEAN HALL - My Milkman Was Freddie King
TTITLE11=BUDDY FLETT - Blues in a Honky Tonk Key
TTITLE12=The DUSTERS - Deep. Deep Scar
TTITLE13=JOHN BLOYS and The BOOGIE STEW - I'm Free
TTITLE14=BLUES COMPANY - The World Is Mad
TTITLE15=GUITAR PETE - Rainmaker
TTITLE16=FREDDY and The SCREAMERS - Full Moon on Main Street
EXTD=
EXTT0=
EXTT1=
EXTT2=
EXTT3=
EXTT4=
EXTT5=
EXTT6=
EXTT7=
EXTT8=
EXTT9=
EXTT10=
EXTT11=
EXTT12=
EXTT13=
EXTT14=
EXTT15=
EXTT16=
PLAYORDER=
